<svg width="52" height="52" viewBox="0 0 52 52" fill="none" xmlns="http://www.w3.org/2000/svg">
<path d="M6.09333 33.1686L1.28056 43.6983C0.678591 45.0153 1.63232 46.5157 3.08033 46.5296L48.8975 46.9702C50.3511 46.9841 51.3336 45.4917 50.7461 44.162L45.8991 33.1917C45.579 32.4673 44.8617 32 44.0697 32H7.91233C7.12955 32 6.41873 32.4567 6.09333 33.1686Z" fill="#FF006F"/>
<path d="M20.5 40.5L18.5 47H33.5L31 40.5H20.5Z" fill="#7C1DD7"/>
<path d="M43.9967 5.5033L7.99671 5.62172C7.44571 5.62353 7 6.07072 7 6.62172V31C7 31.5523 7.44772 32 8 32H44C44.5523 32 45 31.5523 45 31V6.50329C45 5.94973 44.5503 5.50148 43.9967 5.5033Z" fill="#7C1DD7"/>
<path d="M45.028 32.0633H6.8572V7.06564C6.8572 6.20638 7.55381 5.50977 8.41307 5.50977H43.4721C44.3314 5.50977 45.028 6.20638 45.028 7.06564V32.0633Z" stroke="white" stroke-width="1.6" stroke-miterlimit="10" stroke-linecap="round" stroke-linejoin="round"/>
<path d="M1.06483 44.5612L6.85828 32.0642H45.0291L50.8179 44.5612C51.2744 45.7349 50.4085 47.0006 49.1492 47.0006H2.73355C1.47423 47.0006 0.608438 45.7349 1.06483 44.5612Z" stroke="white" stroke-width="1.6" stroke-miterlimit="10" stroke-linecap="round" stroke-linejoin="round"/>
<path d="M18.4742 47.0006L20.5487 40.3622H31.3361L33.4106 47.0006H18.4742Z" stroke="white" stroke-width="1.6" stroke-miterlimit="10" stroke-linecap="round" stroke-linejoin="round"/>
</svg>
