<svg width="52" height="52" viewBox="0 0 52 52" fill="none" xmlns="http://www.w3.org/2000/svg">
<g clip-path="url(#clip0_5206_164)">
<path d="M5 25L4 29.5H48L47 23L45 20L43.5 17L41 14.5L37.5 11L33.5 9.5C32.3333 9 29.9 8 29.5 8H25.5H21.5L18.5 9.5L15 11L12 13L9.5 15.5L6.5 20.5L5 25Z" fill="#FF006F"/>
<path d="M8 38L1.5 44.5L8 51L14.5 44.5L29.5 42.5L36 37.5L41 33.5C41.1667 33 41.5 31.9 41.5 31.5V30.5L40.5 30L39.5 29.5H36.5C36.1 29.5 34.6667 30.5 34 31L28 36L26.5 35.5H24V33.5V31L22 30L16 29L12 30L9.5 32.5L8 35.5V38Z" fill="#7C1DD7"/>
<circle cx="26" cy="4" r="3" fill="#FF006F"/>
<path d="M1 29.3328H51M25.9986 1.00049C27.8386 1.00049 29.3319 2.49406 29.3319 4.33389C29.3319 6.17352 27.8386 7.66719 25.9986 7.66719C24.1594 7.66719 22.6653 6.17352 22.6653 4.33389C22.6653 2.49406 24.1594 1.00049 25.9986 1.00049ZM47.6678 29.3328H4.33453C4.33453 17.3746 14.0437 7.66607 26.0011 7.66607C37.9595 7.66607 47.6678 17.3746 47.6678 29.3328ZM1 44.3333L7.6667 37.6666V37.6649C7.6667 35.4552 8.54502 33.336 10.1075 31.7735C11.67 30.211 13.7892 29.3333 15.9983 29.3333H21C21.8841 29.3333 22.7325 29.6844 23.3575 30.3095C23.9825 30.9347 24.3333 31.7826 24.3333 32.6666C24.3333 33.5506 23.9825 34.3985 23.3575 35.0236C22.7325 35.6486 21.8841 36 21 36H16H27.6667C27.6667 36 30.9525 33.3715 33.3975 31.4154C35.0825 30.0676 37.1758 29.3333 39.3333 29.3333C40.3267 29.3333 41.2124 29.9605 41.5408 30.8976C41.8692 31.8347 41.5709 32.8772 40.795 33.4975C35.905 37.4096 29.3333 42.6667 29.3333 42.6667L14.3333 44.3333L7.6667 51L1 44.3333Z" stroke="white" stroke-width="1.6" stroke-miterlimit="10" stroke-linecap="round" stroke-linejoin="round"/>
</g>
<defs>
<clipPath id="clip0_5206_164">
<rect width="52" height="52" fill="white"/>
</clipPath>
</defs>
</svg>
