<svg width="52" height="52" viewBox="0 0 52 52" fill="none" xmlns="http://www.w3.org/2000/svg">
<path d="M49 17.5H13L15 35.5H42.5L45.5 35L49 17.5Z" fill="#7C1DD7"/>
<path d="M24 45C24 46.6569 22.6569 48 21 48C19.3431 48 18 46.6569 18 45C18 43.3431 19.3431 42 21 42C22.6569 42 24 43.3431 24 45Z" fill="#FF006F"/>
<path d="M43 45C43 46.6569 41.6569 48 40 48C38.3431 48 37 46.6569 37 45C37 43.3431 38.3431 42 40 42C41.6569 42 43 43.3431 43 45Z" fill="#FF006F"/>
<path d="M21 11.5V17L43 17.5L42.5 8.5H30.5L30 11.5H21Z" fill="#FF006F"/>
<path d="M12.6929 17.2855H49L46.3214 33.1472C46.0713 34.6283 44.7729 35.7137 43.2517 35.7137H14.7676L11.6556 8.07137C11.6556 6.37505 10.2622 5 8.54357 5H3M39.6646 41.8576H14.7683C13.0496 41.8576 11.6562 40.4825 11.6562 38.7862C11.6562 37.0899 13.0496 35.7149 14.7683 35.7149M20.9922 17.2875V11.1448H30.3283M30.3281 17.2875V8.07344H42.7763V17.2875M20.9922 23.429V29.5718M30.3281 23.429V29.5718M39.6641 23.429V29.5718M24.103 44.9283C24.103 46.6246 22.7096 47.9996 20.9909 47.9996C19.2723 47.9996 17.8789 46.6246 17.8789 44.9283C17.8789 43.232 19.2723 41.8569 20.9909 41.8569C22.7096 41.8569 24.103 43.232 24.103 44.9283ZM42.7788 44.9283C42.7788 46.6246 41.3854 47.9996 39.6667 47.9996C37.948 47.9996 36.5547 46.6246 36.5547 44.9283C36.5547 43.232 37.948 41.8569 39.6667 41.8569C41.3854 41.8569 42.7788 43.232 42.7788 44.9283Z" stroke="white" stroke-width="1.6" stroke-miterlimit="10" stroke-linecap="round" stroke-linejoin="round"/>
</svg>
