<svg width="52" height="52" viewBox="0 0 52 52" fill="none" xmlns="http://www.w3.org/2000/svg">
<g clip-path="url(#clip0_5206_11)">
<path d="M16.5 17.5V14.5L18 12L44 1.5L47 1L50 2.5L51 5L50 9L40 34L37.5 35.5L34 35L16.5 17.5Z" fill="#7C1DD7"/>
<path d="M19 40L12 32.5L5 39.5L2 42.5L1 45L1.5 48L3.5 50L6.5 51L9.5 50L19 40Z" fill="#FF006F"/>
<path d="M16 28.5L12 32.5L19 40.5L23.5 36L16 28.5Z" fill="#7C1DD7"/>
<path d="M11.6741 32.6238L19.376 40.3257M25.4272 26.5723L19.9258 32.0737M16.075 28.2228L23.7769 35.9246L10.297 49.4048C8.17014 51.5317 4.72191 51.5317 2.59515 49.4048C0.468284 47.2779 0.468284 43.8297 2.59515 41.7029L16.075 28.2228ZM40.7767 32.6764L50.68 7.37102C51.3342 5.69561 50.9863 3.71937 49.6335 2.36646C48.2807 1.01366 46.3043 0.665737 44.6298 1.32082L19.3227 11.2225C18.7416 11.4509 18.1958 11.7988 17.7256 12.2689C15.9026 14.092 15.9026 17.0476 17.7256 18.8706C19.5487 20.6936 31.3064 32.4514 33.1293 34.2743C34.9523 36.0972 37.908 36.0974 39.731 34.2743C40.2012 33.8041 40.5491 33.2583 40.7767 32.6764Z" stroke="white" stroke-width="1.6" stroke-miterlimit="10"/>
</g>
<defs>
<clipPath id="clip0_5206_11">
<rect width="52" height="52" fill="white"/>
</clipPath>
</defs>
</svg>
