<svg width="52" height="52" viewBox="0 0 52 52" fill="none" xmlns="http://www.w3.org/2000/svg">
<path d="M23.5 35.5L14.5 26.5L25 4.5L45.5 25L23.5 35.5Z" fill="#7C1DD7"/>
<path d="M3.5 37.5L14 27L23 35.5L12.5 46.5L10.5 47L8 46.5L3 41V39.5L3.5 37.5Z" fill="#FF006F"/>
<path d="M32 44.5L23.5 36L17.5 41.5L27 50.5L29 51L31 50.5L32 49.5L32.5 47.6875V45.5L32 44.5Z" fill="#7C1DD7"/>
<path d="M24.9059 3.9961L14.2715 26.5605M14.2715 26.5605L4.24751 36.5327C2.58416 38.1874 2.58416 40.8704 4.24751 42.5251L7.25934 45.5214C8.92268 47.1762 11.6195 47.1762 13.2829 45.5214L23.3068 35.5492L45.9882 24.9697M14.2715 26.5605L31.5229 43.7229C32.3197 44.4928 32.8149 45.5702 32.8149 46.7627C32.8149 49.1028 30.9081 51 28.5557 51C27.3569 51 26.274 50.5073 25.5 49.7146L17.2841 41.5411M49 27.9658L21.8942 1M44.665 11.6685L49 9.47456M38.2761 5.3126L40.4814 1" stroke="white" stroke-width="1.6" stroke-miterlimit="10" stroke-linecap="round" stroke-linejoin="round"/>
</svg>
