<svg width="52" height="52" viewBox="0 0 52 52" fill="none" xmlns="http://www.w3.org/2000/svg">
<g clip-path="url(#clip0_5206_201)">
<path fill-rule="evenodd" clip-rule="evenodd" d="M8.5 23H11L13 18L11.5 15.5L15.8125 11.5L18 13L22.5 11L23 8.5H29V11L34 13L36 12L40 15.5L39 18L41 22.5L43.5 23V29H41L39 34.5L40.5 36.5L36 40.5L34 39L29.5 41L29 43.5H23.5L22.5 41L18 39L15.8125 40.5L11.5 36L13 34L11 29.5L8.5 29V23ZM26 33C29.866 33 33 29.866 33 26C33 22.134 29.866 19 26 19C22.134 19 19 22.134 19 26C19 29.866 22.134 33 26 33Z" fill="#7C1DD7"/>
<path d="M12 45C12 46.6569 10.6569 48 9 48C7.34315 48 6 46.6569 6 45C6 43.3431 7.34315 42 9 42C10.6569 42 12 43.3431 12 45Z" fill="#FF006F"/>
<path d="M46 8C46 9.65685 44.6569 11 43 11C41.3431 11 40 9.65685 40 8C40 6.34315 41.3431 5 43 5C44.6569 5 46 6.34315 46 8Z" fill="#FF006F"/>
<path d="M21.0699 50.5139C22.6638 50.8327 24.3124 51 26.0001 51C39.8072 51 51.0001 39.8071 51.0001 26C51.0001 19.9727 48.8667 14.4438 45.3144 10.1264M30.9776 1.49563C29.369 1.17063 27.7045 1 26 1C12.1929 1 1 12.1929 1 26C1 32.0273 3.13333 37.5562 6.68567 41.8736M45.1642 9.80886C43.8942 11.0789 41.8352 11.0789 40.5652 9.80886C39.2951 8.53884 39.2951 6.47979 40.5652 5.20977C41.8352 3.93975 43.8942 3.93975 45.1642 5.20977C46.4343 6.47979 46.4343 8.53884 45.1642 9.80886ZM11.4349 46.7902C10.1649 48.0602 8.10586 48.0602 6.83584 46.7902C5.56581 45.5202 5.56581 43.4612 6.83584 42.1911C8.10586 40.9211 10.1649 40.9211 11.4349 42.1911C12.7049 43.4612 12.7049 45.5202 11.4349 46.7902ZM26 33.3811C21.9236 33.3811 18.6189 30.0765 18.6189 26C18.6189 21.9235 21.9236 18.619 26 18.619C30.0765 18.619 33.3811 21.9235 33.3811 26C33.3811 30.0765 30.0765 33.3811 26 33.3811ZM40.7191 22.8137C40.3319 21.0116 39.6228 19.3292 38.654 17.8301L40.6012 15.8829L36.1063 11.3913L34.1607 13.3369C32.6616 12.3681 30.9793 11.6591 29.1773 11.272V8.52028H22.8228V11.272C21.0208 11.6591 19.3385 12.3681 17.8394 13.3369L15.8937 11.3913L11.3989 15.8829L13.3461 17.8301C12.3773 19.3292 11.6682 21.0116 11.281 22.8137H8.52209L8.51864 29.168H11.2809C11.6681 30.9701 12.3772 32.6525 13.346 34.1517L11.3914 36.1063L15.883 40.6012L17.8392 38.6449C19.3384 39.6138 21.0208 40.3228 22.8228 40.71V43.4796H29.1773V40.71C30.9793 40.3228 32.6617 39.6138 34.1609 38.6449L36.1171 40.6012L40.6087 36.1063L38.6541 34.1517C39.6229 32.6525 40.332 30.9701 40.7192 29.168H43.4815V22.8137H40.7191Z" stroke="white" stroke-width="1.6" stroke-miterlimit="10" stroke-linecap="round" stroke-linejoin="round"/>
</g>
<defs>
<clipPath id="clip0_5206_201">
<rect width="52" height="52" fill="white"/>
</clipPath>
</defs>
</svg>
